name rise34.3697peak60.0498fall86.3158.mot
datacolumns 19
datarows 23
range 3.74831900000000 3.78500400000000
endheader
time	ground_force1_vx	ground_force1_vy	ground_force1_vz	ground_force1_px	ground_force1_py	ground_force1_pz	ground_force2_vx	ground_force2_vy	ground_force2_vz	ground_force2_px	ground_force2_py	ground_force2_pz	ground_torque1_x	ground_torque1_y	ground_torque1_z	ground_torque2_x	ground_torque2_y	ground_torque2_z	
3.74831900000000	-54.06946400000000	823.78480100000002	51.00586600000000	0.20227700000000	0.00000000000000	0.08701000000000	-5.70740700000000	21.49016900000000	5.00451200000000	0.00000000000000	0.00000000000000	0.00000000000000	0.00000000000000	27.27874500000000	0.00000000000000	0.00000000000000	2.23666000000000	0.00000000000000	
3.74999200000000	-54.21657100000000	820.65591600000005	50.84404600000000	0.20150600000000	0.00000000000000	0.08704900000000	-6.92249600000000	27.21315100000000	6.13446600000000	0.43773200000000	0.00000000000000	-0.06512300000000	0.00000000000000	27.11273800000000	0.00000000000000	0.00000000000000	4.97626500000000	0.00000000000000	
3.75165000000000	-54.37472400000000	817.38956199999996	50.65870800000000	0.20073600000000	0.00000000000000	0.08708700000000	-8.11271900000000	33.25041400000000	7.26490900000000	0.43856100000000	0.00000000000000	-0.06606000000000	0.00000000000000	26.94191800000000	0.00000000000000	0.00000000000000	5.89786900000000	0.00000000000000	
3.75331800000000	-54.54435900000000	813.98705900000004	50.44972600000000	0.19996800000000	0.00000000000000	0.08712200000000	-9.23425700000000	39.47216000000000	8.35906800000000	0.43954200000000	0.00000000000000	-0.06691200000000	0.00000000000000	26.76647000000000	0.00000000000000	0.00000000000000	6.79433400000000	0.00000000000000	
3.75499400000000	-54.72586000000000	810.44977800000004	50.21702000000000	0.19920300000000	0.00000000000000	0.08715400000000	-10.24738500000000	45.75369400000000	9.38312800000000	0.44065200000000	0.00000000000000	-0.06768900000000	0.00000000000000	26.58658000000000	0.00000000000000	0.00000000000000	7.63909300000000	0.00000000000000	
3.75665400000000	-54.91956400000000	806.77912600000002	49.96054800000000	0.19844200000000	0.00000000000000	0.08718400000000	-11.11908100000000	51.98472900000000	10.30848800000000	0.44187000000000	0.00000000000000	-0.06840100000000	0.00000000000000	26.40243700000000	0.00000000000000	0.00000000000000	8.40957600000000	0.00000000000000	
3.75832200000000	-55.12575400000000	802.97654299999999	49.68031100000000	0.19768400000000	0.00000000000000	0.08721100000000	-11.82479900000000	58.07641800000000	11.11335000000000	0.44317900000000	0.00000000000000	-0.06905700000000	0.00000000000000	26.21423200000000	0.00000000000000	0.00000000000000	9.08847800000000	0.00000000000000	
3.76000500000000	-55.34465800000000	799.04349200000001	49.37635300000000	0.19693100000000	0.00000000000000	0.08723500000000	-12.34930600000000	63.96563200000000	11.78352400000000	0.44456300000000	0.00000000000000	-0.06966400000000	0.00000000000000	26.02215200000000	0.00000000000000	0.00000000000000	9.66442600000000	0.00000000000000	
3.76165200000000	-55.57644800000000	794.98145399999999	49.04875600000000	0.19618300000000	0.00000000000000	0.08725500000000	-12.68664000000000	69.61647100000000	12.31249600000000	0.44600900000000	0.00000000000000	-0.07022700000000	0.00000000000000	25.82638600000000	0.00000000000000	0.00000000000000	10.13207000000000	0.00000000000000	
3.76331600000000	-55.82123400000000	790.79191900000001	48.69764400000000	0.19544100000000	0.00000000000000	0.08727100000000	-12.83931500000000	75.01927900000000	12.70085900000000	0.44750300000000	0.00000000000000	-0.07075200000000	0.00000000000000	25.62711900000000	0.00000000000000	0.00000000000000	10.49167000000000	0.00000000000000	
3.76500800000000	-56.07906800000000	786.47638500000005	48.32318000000000	0.19470400000000	0.00000000000000	0.08728400000000	-12.81697000000000	80.18767400000000	12.95524800000000	0.44903700000000	0.00000000000000	-0.07124300000000	0.00000000000000	25.42453200000000	0.00000000000000	0.00000000000000	10.74828900000000	0.00000000000000	
3.76664800000000	-56.34993300000000	782.03634399999999	47.92556400000000	0.19397400000000	0.00000000000000	0.08729300000000	-12.63465500000000	85.15416600000000	13.08697700000000	0.45060100000000	0.00000000000000	-0.07170400000000	0.00000000000000	25.21880300000000	0.00000000000000	0.00000000000000	10.91073200000000	0.00000000000000	
3.76831900000000	-56.63374900000000	777.47328600000003	47.50503600000000	0.19325100000000	0.00000000000000	0.08729800000000	-12.31098700000000	89.96498500000000	13.11051400000000	0.45218500000000	0.00000000000000	-0.07213700000000	0.00000000000000	25.01010200000000	0.00000000000000	0.00000000000000	10.99035700000000	0.00000000000000	
3.77000600000000	-56.93036600000000	772.78868599999998	47.06187100000000	0.19253500000000	0.00000000000000	0.08729800000000	-11.86631300000000	94.67467400000000	13.04196800000000	0.45378300000000	0.00000000000000	-0.07254700000000	0.00000000000000	24.79859500000000	0.00000000000000	0.00000000000000	10.99988500000000	0.00000000000000	
3.77165200000000	-57.23956600000000	767.98400200000003	46.59638000000000	0.19182700000000	0.00000000000000	0.08729400000000	-11.32106300000000	99.34092800000001	12.89770900000000	0.45538700000000	0.00000000000000	-0.07293400000000	0.00000000000000	24.58444100000000	0.00000000000000	0.00000000000000	10.95228600000000	0.00000000000000	
3.77331500000000	-57.56105700000000	763.06067399999995	46.10890900000000	0.19112700000000	0.00000000000000	0.08728600000000	-10.69437100000000	104.02005800000001	12.69318600000000	0.45699100000000	0.00000000000000	-0.07330300000000	0.00000000000000	24.36778800000000	0.00000000000000	0.00000000000000	10.85984200000000	0.00000000000000	
3.77498700000000	-57.89447400000000	758.02011500000003	45.59983700000000	0.19043400000000	0.00000000000000	0.08727200000000	-10.00302900000000	108.76331200000000	12.44203800000000	0.45859000000000	0.00000000000000	-0.07365300000000	0.00000000000000	24.14877800000000	0.00000000000000	0.00000000000000	10.73341500000000	0.00000000000000	
3.77665100000000	-58.23937700000000	752.86371299999996	45.06957400000000	0.18975100000000	0.00000000000000	0.08725400000000	-9.26080800000000	113.61420300000000	12.15548100000000	0.46017800000000	0.00000000000000	-0.07398700000000	0.00000000000000	23.92754200000000	0.00000000000000	0.00000000000000	10.58194100000000	0.00000000000000	
3.77831900000000	-58.59524800000000	747.59282199999996	44.51856300000000	0.18907500000000	0.00000000000000	0.08723000000000	-8.47811400000000	118.60685700000001	11.84198900000000	0.46175100000000	0.00000000000000	-0.07430700000000	0.00000000000000	23.70420000000000	0.00000000000000	0.00000000000000	10.41216000000000	0.00000000000000	
3.77999100000000	-58.96149400000000	742.20876599999997	43.94727600000000	0.18840800000000	0.00000000000000	0.08720100000000	-7.66196600000000	123.76533100000000	11.50724100000000	0.46330400000000	0.00000000000000	-0.07461300000000	0.00000000000000	23.47886200000000	0.00000000000000	0.00000000000000	10.22855000000000	0.00000000000000	
3.78165200000000	-59.33744200000000	736.71283300000005	43.35621300000000	0.18775000000000	0.00000000000000	0.08716700000000	-6.81622500000000	129.10377299999999	11.15427500000000	0.46483300000000	0.00000000000000	-0.07490800000000	0.00000000000000	23.25162900000000	0.00000000000000	0.00000000000000	10.03345000000000	0.00000000000000	
3.78332000000000	-59.72234000000000	731.10627499999998	42.74590100000000	0.18710100000000	0.00000000000000	0.08712800000000	-5.94201400000000	134.62725900000001	10.78382100000000	0.46633500000000	0.00000000000000	-0.07519100000000	0.00000000000000	23.02258600000000	0.00000000000000	0.00000000000000	9.82730400000000	0.00000000000000	
3.78500400000000	-60.11535800000000	725.39030900000000	42.11689400000000	0.18646000000000	0.00000000000000	0.08708300000000	-5.03827200000000	140.33311499999999	10.39473300000000	0.46780600000000	0.00000000000000	-0.07546400000000	0.00000000000000	22.79180900000000	0.00000000000000	0.00000000000000	9.60901900000000	0.00000000000000	
